# xmcd
#
# Track frame offsets:
#	150
#	15900
#	33975
#	47625
#	67800
#	86250
#	107325
#	123675
#	141675
#	157425
#	172725
#	188475
#	206550
#	220200
#	240375
#	258825
#	279900
#	296250
#	314250
#	330000
#
# Disc length: 4608 seconds
#
# Revision: 0
# Processed by: cddbd v1.5.1PL2 Copyright (c) Steve Scherf et al.
# Submitted via: audiograbber 1.83.01
#
DISCID=0711fe14
DTITLE=Country Hits Today - CHT9911C
DYEAR=1900
DGENRE=Karaoke
TTITLE0=Lonestar - Smile
TTITLE1=Trace Adkins - Don't Lie
TTITLE2=Vince Gill - Let Her In
TTITLE3=Tracy Byrd - Put Your Hand In Mine
TTITLE4=Clint Black - When I Said I Do
TTITLE5=Garth Brooks - It Don't Matter To The Sun
TTITLE6=Brooks And Dunn - Missing You
TTITLE7=Brad Paisley - He Didn't Have To Be
TTITLE8=Randy Travis - Man Ain't Made Of Stone
TTITLE9=Ty Herndon - Steam
TTITLE10=Lonestar - Smile (Vocal)
TTITLE11=Trace Adkins - Don't Lie (Vocal)
TTITLE12=Vince Gill - Let Her In (Vocal)
TTITLE13=Tracy Byrd - Put Your Hand In Mine (Vocal)
TTITLE14=Clint Black - When I Said I Do (Vocal)
TTITLE15=Garth Brooks - It Don't Matter To The Sun (Vocal)
TTITLE16=Brooks And Dunn - Missing You (Vocal)
TTITLE17=Brad Paisley - He Didn't Have To Be (Vocal)
TTITLE18=Randy Travis - Man Ain't Made Of Stone (Vocal)
TTITLE19=Ty Herndon - Steam (Vocal)
EXTD=
EXTT0=
EXTT1=
EXTT2=
EXTT3=
EXTT4=
EXTT5=
EXTT6=
EXTT7=
EXTT8=
EXTT9=
EXTT10=
EXTT11=
EXTT12=
EXTT13=
EXTT14=
EXTT15=
EXTT16=
EXTT17=
EXTT18=
EXTT19=
PLAYORDER=
